HIERARCHY
ROOT Hips
{
	OFFSET 0.000000 83.214638 0.000000
	CHANNELS 6 Xposition Yposition Zposition Xrotation Yrotation Zrotation
	JOINT Pelvis
	{
		OFFSET 0.000000 0.000000 0.000000
		CHANNELS 3 Xrotation Yrotation Zrotation
		JOINT LeftUpLeg
		{
			OFFSET 8.479700 -4.795502 -0.379100
			CHANNELS 3 Xrotation Yrotation Zrotation
			JOINT LeftLeg
			{
				OFFSET 0.024144 -32.555107 0.112900
				CHANNELS 3 Xrotation Yrotation Zrotation
				JOINT LeftFoot
				{
					OFFSET -0.024144 -32.638630 -3.012600
					CHANNELS 3 Xrotation Yrotation Zrotation
					JOINT LeftToeBase
					{
						OFFSET 0.970200 -13.225400 11.864200
						CHANNELS 3 Xrotation Yrotation Zrotation
						End Site
						{
							OFFSET 0.000000 12.319262 0.000000
						}
					}
					JOINT LFootTongue
					{
						OFFSET 1.142400 -1.059800 6.665200
						CHANNELS 3 Xrotation Yrotation Zrotation
						End Site
						{
							OFFSET 0.000000 12.319262 0.000000
						}
					}
				}
				JOINT LeftPantLeg
				{
					OFFSET 0.918482 -16.533964 -2.284700
					CHANNELS 3 Xrotation Yrotation Zrotation
					End Site
					{
						OFFSET 0.350399 24.744368 0.000000
					}
				}
			}
		}
		JOINT RightUpLeg
		{
			OFFSET -8.479700 -4.795502 -0.379100
			CHANNELS 3 Xrotation Yrotation Zrotation
			JOINT RightLeg
			{
				OFFSET -0.023144 -32.555092 0.112900
				CHANNELS 3 Xrotation Yrotation Zrotation
				JOINT RightFoot
				{
					OFFSET 0.023144 -32.638641 -3.012700
					CHANNELS 3 Xrotation Yrotation Zrotation
					JOINT RightToeBase
					{
						OFFSET -0.970200 -13.225400 11.864200
						CHANNELS 3 Xrotation Yrotation Zrotation
						End Site
						{
							OFFSET 0.000000 12.319244 0.000000
						}
					}
					JOINT RFootTongue
					{
						OFFSET -1.142200 -1.059800 6.665200
						CHANNELS 3 Xrotation Yrotation Zrotation
						End Site
						{
							OFFSET 0.000000 12.319243 0.000000
						}
					}
				}
				JOINT RightPantLeg
				{
					OFFSET -0.919482 -16.533978 -2.284800
					CHANNELS 3 Xrotation Yrotation Zrotation
					End Site
					{
						OFFSET -0.350400 24.744419 0.000000
					}
				}
			}
		}
	}
	JOINT Spine
	{
		OFFSET 0.000000 7.722000 1.166200
		CHANNELS 3 Xrotation Yrotation Zrotation
		JOINT Spine1
		{
			OFFSET 0.000000 12.024101 0.248800
			CHANNELS 3 Xrotation Yrotation Zrotation
			JOINT Spine2
			{
				OFFSET 0.000000 11.502998 -0.491200
				CHANNELS 3 Xrotation Yrotation Zrotation
				JOINT Neck
				{
					OFFSET 0.000000 18.430702 -3.123100
					CHANNELS 3 Xrotation Yrotation Zrotation
					JOINT Head
					{
						OFFSET 0.000000 9.051102 1.034000
						CHANNELS 3 Xrotation Yrotation Zrotation
						JOINT HairB
						{
							OFFSET 0.208400 24.786102 24.822300
							CHANNELS 3 Xrotation Yrotation Zrotation
							End Site
							{
								OFFSET 0.000000 32.263779 0.000000
							}
						}
						JOINT HairA
						{
							OFFSET -7.081100 24.428299 23.196600
							CHANNELS 3 Xrotation Yrotation Zrotation
							End Site
							{
								OFFSET 0.000000 32.263779 0.000000
							}
						}
						JOINT Hat
						{
							OFFSET 16.728800 15.048294 -15.439601
							CHANNELS 3 Xrotation Yrotation Zrotation
							End Site
							{
								OFFSET 0.000000 32.263779 0.000000
							}
						}
					}
				}
				JOINT LeftShoulder
				{
					OFFSET 6.197800 13.665199 -4.064700
					CHANNELS 3 Xrotation Yrotation Zrotation
					JOINT LeftArm
					{
						OFFSET 7.778100 -0.187103 -1.709300
						CHANNELS 3 Xrotation Yrotation Zrotation
						JOINT LeftForeArm
						{
							OFFSET 22.049376 0.000000 0.000000
							CHANNELS 3 Xrotation Yrotation Zrotation
							JOINT LeftHand
							{
								OFFSET 23.009392 0.000000 0.000000
								CHANNELS 3 Xrotation Yrotation Zrotation
								JOINT LeftHandThumb1
								{
									OFFSET 3.507191 -2.063065 3.133727
									CHANNELS 3 Xrotation Yrotation Zrotation
									JOINT LeftHandThumb2
									{
										OFFSET 3.101337 -1.790558 1.790558
										CHANNELS 3 Xrotation Yrotation Zrotation
										JOINT LeftHandThumb3
										{
											OFFSET 3.058640 -1.765907 1.765906
											CHANNELS 3 Xrotation Yrotation Zrotation
											End Site
											{
												OFFSET -0.415260 3.926476 -0.049563
											}
										}
									}
								}
								JOINT LeftHandIndex1
								{
									OFFSET 11.334419 -0.901459 3.706815
									CHANNELS 3 Xrotation Yrotation Zrotation
									JOINT LeftHandIndex2
									{
										OFFSET 3.283112 0.000000 0.000000
										CHANNELS 3 Xrotation Yrotation Zrotation
										JOINT LeftHandIndex3
										{
											OFFSET 3.323853 0.000000 0.000000
											CHANNELS 3 Xrotation Yrotation Zrotation
											End Site
											{
												OFFSET -1.135597 3.097809 0.402452
											}
										}
									}
								}
								JOINT LeftHandMiddle1
								{
									OFFSET 11.335861 0.000000 0.000000
									CHANNELS 3 Xrotation Yrotation Zrotation
									JOINT LeftHandMiddle2
									{
										OFFSET 3.410492 0.000000 0.000000
										CHANNELS 3 Xrotation Yrotation Zrotation
										JOINT LeftHandMiddle3
										{
											OFFSET 3.312172 0.000000 0.000000
											CHANNELS 3 Xrotation Yrotation Zrotation
											End Site
											{
												OFFSET -1.150200 3.080154 0.400270
											}
										}
									}
								}
								JOINT LeftHandRing1
								{
									OFFSET 11.514786 -0.013176 -3.003090
									CHANNELS 3 Xrotation Yrotation Zrotation
									JOINT LeftHandRing2
									{
										OFFSET 3.053307 0.000000 0.000000
										CHANNELS 3 Xrotation Yrotation Zrotation
										JOINT LeftHandRing3
										{
											OFFSET 3.295807 0.000000 0.000000
											CHANNELS 3 Xrotation Yrotation Zrotation
											End Site
											{
												OFFSET -1.281006 3.013344 0.375733
											}
										}
									}
								}
								JOINT LeftHandPinky1
								{
									OFFSET 10.518692 -0.960396 -5.730441
									CHANNELS 3 Xrotation Yrotation Zrotation
									JOINT LeftHandPinky2
									{
										OFFSET 2.861649 0.000000 0.000000
										CHANNELS 3 Xrotation Yrotation Zrotation
										JOINT LeftHandPinky3
										{
											OFFSET 2.863380 0.000000 0.000000
											CHANNELS 3 Xrotation Yrotation Zrotation
											End Site
											{
												OFFSET -0.843597 2.711159 0.369971
											}
										}
									}
								}
							}
							JOINT LSleeve
							{
								OFFSET 6.676277 -0.344902 -1.011730
								CHANNELS 3 Xrotation Yrotation Zrotation
								End Site
								{
									OFFSET 0.000000 14.885353 0.000000
								}
							}
						}
					}
				}
				JOINT RightShoulder
				{
					OFFSET -6.197800 13.665199 -4.064700
					CHANNELS 3 Xrotation Yrotation Zrotation
					JOINT RightArm
					{
						OFFSET -7.778100 -0.187103 -1.709300
						CHANNELS 3 Xrotation Yrotation Zrotation
						JOINT RightForeArm
						{
							OFFSET -22.049376 0.000000 0.000000
							CHANNELS 3 Xrotation Yrotation Zrotation
							JOINT RightHand
							{
								OFFSET -23.009392 0.000000 0.000000
								CHANNELS 3 Xrotation Yrotation Zrotation
								JOINT RightHandThumb1
								{
									OFFSET -3.507191 -2.063065 3.133727
									CHANNELS 3 Xrotation Yrotation Zrotation
									JOINT RightHandThumb2
									{
										OFFSET -3.101337 -1.790558 1.790558
										CHANNELS 3 Xrotation Yrotation Zrotation
										JOINT RightHandThumb3
										{
											OFFSET -3.058640 -1.765907 1.765906
											CHANNELS 3 Xrotation Yrotation Zrotation
											End Site
											{
												OFFSET 0.415260 3.926476 -0.049563
											}
										}
									}
								}
								JOINT RightHandIndex1
								{
									OFFSET -11.334419 -0.901459 3.706815
									CHANNELS 3 Xrotation Yrotation Zrotation
									JOINT RightHandIndex2
									{
										OFFSET -3.283112 0.000000 0.000000
										CHANNELS 3 Xrotation Yrotation Zrotation
										JOINT RightHandIndex3
										{
											OFFSET -3.323853 0.000000 0.000000
											CHANNELS 3 Xrotation Yrotation Zrotation
											End Site
											{
												OFFSET 1.135597 3.097809 0.402452
											}
										}
									}
								}
								JOINT RightHandMiddle1
								{
									OFFSET -11.335861 0.000000 0.000000
									CHANNELS 3 Xrotation Yrotation Zrotation
									JOINT RightHandMiddle2
									{
										OFFSET -3.410492 0.000000 0.000000
										CHANNELS 3 Xrotation Yrotation Zrotation
										JOINT RightHandMiddle3
										{
											OFFSET -3.312172 0.000000 0.000000
											CHANNELS 3 Xrotation Yrotation Zrotation
											End Site
											{
												OFFSET 1.150200 3.080154 0.400270
											}
										}
									}
								}
								JOINT RightHandRing1
								{
									OFFSET -11.514786 -0.013176 -3.003090
									CHANNELS 3 Xrotation Yrotation Zrotation
									JOINT RightHandRing2
									{
										OFFSET -3.053307 0.000000 0.000000
										CHANNELS 3 Xrotation Yrotation Zrotation
										JOINT RightHandRing3
										{
											OFFSET -3.295807 0.000000 0.000000
											CHANNELS 3 Xrotation Yrotation Zrotation
											End Site
											{
												OFFSET 1.281006 3.013344 0.375733
											}
										}
									}
								}
								JOINT RightHandPinky1
								{
									OFFSET -10.518692 -0.960396 -5.730441
									CHANNELS 3 Xrotation Yrotation Zrotation
									JOINT RightHandPinky2
									{
										OFFSET -2.861649 0.000000 0.000000
										CHANNELS 3 Xrotation Yrotation Zrotation
										JOINT RightHandPinky3
										{
											OFFSET -2.863380 0.000000 0.000000
											CHANNELS 3 Xrotation Yrotation Zrotation
											End Site
											{
												OFFSET 0.843597 2.711159 0.369971
											}
										}
									}
								}
							}
							JOINT RSleeve
							{
								OFFSET -6.676277 -0.344902 -1.011730
								CHANNELS 3 Xrotation Yrotation Zrotation
								End Site
								{
									OFFSET 0.000000 14.885353 0.000000
								}
							}
						}
					}
				}
				JOINT Backpack
				{
					OFFSET 0.000000 -2.471497 36.677502
					CHANNELS 3 Xrotation Yrotation Zrotation
					End Site
					{
						OFFSET 0.000000 20.427315 0.000000
					}
				}
				JOINT Hood
				{
					OFFSET 0.000000 18.754097 -10.431000
					CHANNELS 3 Xrotation Yrotation Zrotation
					JOINT Hood1
					{
						OFFSET 0.000000 -5.011002 -7.685901
						CHANNELS 3 Xrotation Yrotation Zrotation
						End Site
						{
							OFFSET 0.000000 9.175140 0.000000
						}
					}
				}
				JOINT LHoodieString
				{
					OFFSET 5.250500 16.397697 3.089900
					CHANNELS 3 Xrotation Yrotation Zrotation
					JOINT LHoodieString1
					{
						OFFSET 0.257700 -6.364304 3.694600
						CHANNELS 3 Xrotation Yrotation Zrotation
						JOINT LHoodieString2
						{
							OFFSET 0.000000 -9.643799 2.679100
							CHANNELS 3 Xrotation Yrotation Zrotation
							End Site
							{
								OFFSET 0.000000 10.009018 0.000000
							}
						}
					}
				}
				JOINT RHoodieString
				{
					OFFSET -5.250500 16.397697 3.089900
					CHANNELS 3 Xrotation Yrotation Zrotation
					JOINT RHoodieString1
					{
						OFFSET -0.257700 -6.364304 3.694600
						CHANNELS 3 Xrotation Yrotation Zrotation
						JOINT RHoodieString2
						{
							OFFSET 0.000000 -9.643799 2.679100
							CHANNELS 3 Xrotation Yrotation Zrotation
							End Site
							{
								OFFSET 0.000000 10.009018 0.000000
							}
						}
					}
				}
			}
			JOINT LBackpack_Strap
			{
				OFFSET 15.223200 -7.719803 -6.610900
				CHANNELS 3 Xrotation Yrotation Zrotation
				End Site
				{
					OFFSET 0.000000 16.040596 0.000000
				}
			}
			JOINT RBackpack_Strap
			{
				OFFSET -15.223000 -7.719803 -6.610900
				CHANNELS 3 Xrotation Yrotation Zrotation
				End Site
				{
					OFFSET 0.000000 16.040596 0.000000
				}
			}
		}
	}
	JOINT BoyFacialAnim_Joint
	{
		OFFSET 1.000000 -82.208099 -1.550900
		CHANNELS 3 Xrotation Yrotation Zrotation
		End Site
		{
			OFFSET 0.000000 30.012791 0.000000
		}
	}
}
MOTION
Frames: 5
Frame Time: 0.033333
9.673800 72.763855 -1.708544 2.696245 -0.993412 1.648754 -0.000000 -0.000000 0.000000 -36.552430 -0.284910 9.336531 55.085957 -1.986348 4.467665 -20.616675 3.094432 -12.972814 -0.000000 0.000000 0.000000 -0.000000 0.000000 0.000000 -0.000001 -0.000000 0.000001 -34.646469 1.728916 -17.049436 49.781666 9.466491 -9.019449 -18.740272 -2.199634 19.374325 0.000000 0.000000 0.000000 0.000000 0.000000 0.000000 0.000001 -0.000000 -0.000001 12.162161 -5.451132 4.741802 8.647618 -1.652061 3.804959 8.685374 -1.661083 3.714582 -0.934208 2.577192 -1.700551 -28.489687 15.218114 -6.582179 -0.000000 -0.000000 -0.000000 -0.000000 -0.000000 -0.000000 -0.000000 -0.000000 -0.000000 0.829425 -2.661995 -3.089986 -16.525781 -56.520410 -42.629540 -0.000035 -115.396237 -0.000032 34.359782 20.975415 -3.694066 33.555927 13.229851 -1.093520 46.278264 53.322706 -39.139788 -0.000006 -0.000000 -0.000001 7.843458 6.813922 -98.057324 7.962746 6.796053 -99.064230 -0.000002 0.000001 -0.000002 7.841503 6.814181 -98.041095 7.964645 6.795762 -99.080432 0.000003 -0.000001 0.000004 7.843425 6.813891 -98.057303 7.962714 6.796062 -99.064224 -0.000000 -0.000001 -0.000002 11.884163 6.247152 -98.006644 7.958084 2.710170 -99.007854 0.000003 -0.000002 -0.000002 -0.000001 0.000000 -0.000000 0.092761 -8.483517 8.510908 -3.520536 33.621258 32.429834 0.000020 124.483845 -0.000029 14.771532 -19.857383 -32.044106 43.155724 3.523209 3.090581 62.920877 -20.728661 19.962145 -0.000003 0.000000 0.000001 8.518581 -6.769323 103.092874 8.518575 -6.769310 103.092922 -0.000002 0.000001 0.000000 8.518566 -6.769315 103.092867 8.518570 -6.769294 103.092915 0.000001 0.000001 0.000002 8.518566 -6.769293 103.092881 8.518559 -6.769300 103.092929 0.000006 0.000000 0.000000 8.518563 -6.769278 103.092874 8.518579 -6.769322 103.092915 -0.000001 0.000000 0.000000 0.000001 0.000001 0.000000 -0.000001 0.000000 0.000001 -0.000001 0.000000 0.000001 -0.000001 0.000000 0.000001 -0.000001 0.000000 0.000001 -0.000001 0.000000 -0.000000 0.000001 0.000000 -0.000000 -0.000001 0.000000 0.000001 -0.000001 0.000000 -0.000000 0.000001 0.000000 -0.000000 -0.000001 0.000000 -0.000000 -0.000001 0.000000 -0.000000 -0.000000 -0.000000 0.000000 
8.771333 74.583237 -1.391074 3.209047 2.389255 2.577015 0.000000 0.000000 -0.000000 -33.968716 0.847757 8.704414 47.377795 -5.278712 4.078821 -16.588569 2.515608 -12.146412 -0.000000 -0.000000 0.000000 -0.000000 -0.000000 0.000000 0.000001 0.000000 0.000001 -31.616963 -0.766388 -18.668751 44.662593 9.277077 -7.959906 -16.935748 -3.215514 18.311522 -0.000000 0.000000 0.000000 -0.000000 0.000000 0.000000 0.000002 -0.000000 -0.000000 9.893373 -6.470392 5.399420 7.863530 -1.931837 4.162324 7.908812 -1.957735 4.060156 -0.660634 2.635350 -2.089812 -24.930068 15.487975 -8.078278 0.000000 -0.000000 -0.000000 0.000000 -0.000000 -0.000000 0.000000 -0.000000 -0.000000 0.862937 -3.809476 -1.222508 -28.281240 -55.965207 -51.488923 -0.000040 -107.687611 -0.000048 32.257068 18.042389 -1.908021 33.555924 13.229851 -1.093520 46.278268 53.322706 -39.139788 -0.000005 -0.000001 0.000000 7.843456 6.813921 -98.057324 7.962747 6.796054 -99.064230 -0.000002 0.000003 -0.000003 7.841501 6.814180 -98.041095 7.964644 6.795762 -99.080432 0.000001 0.000001 -0.000001 7.843428 6.813889 -98.057303 7.962718 6.796061 -99.064224 -0.000000 0.000001 -0.000000 11.884165 6.247155 -98.006637 7.958081 2.710169 -99.007861 -0.000000 0.000003 0.000000 0.000000 0.000000 0.000001 0.099970 -7.703229 7.574610 -10.992010 32.854238 34.090789 0.000055 119.887141 -0.000049 15.986561 -19.409745 -27.767926 43.155724 3.523208 3.090579 62.920871 -20.728659 19.962147 0.000000 0.000001 0.000001 8.518582 -6.769325 103.092874 8.518578 -6.769311 103.092922 -0.000001 0.000001 0.000004 8.518564 -6.769316 103.092867 8.518571 -6.769295 103.092915 0.000002 -0.000001 0.000001 8.518574 -6.769292 103.092881 8.518558 -6.769298 103.092929 0.000000 0.000002 0.000001 8.518562 -6.769279 103.092881 8.518578 -6.769313 103.092915 -0.000002 -0.000000 0.000000 0.000000 0.000001 -0.000001 0.000001 -0.000000 0.000000 0.000001 -0.000000 0.000000 0.000001 -0.000000 0.000000 0.000001 -0.000000 0.000000 0.000001 -0.000000 -0.000000 0.000003 0.000000 0.000000 0.000001 -0.000000 0.000000 0.000001 -0.000000 -0.000000 0.000003 0.000000 0.000000 0.000004 0.000000 -0.000000 0.000004 0.000000 -0.000000 0.000000 0.000000 -0.000000 
7.711596 76.191055 -0.988029 3.383928 5.760459 3.276924 -0.000000 0.000001 0.000000 -30.893431 2.255049 8.710281 39.211337 -8.453805 3.316062 -12.359079 1.285370 -11.777131 -0.000000 0.000000 -0.000000 -0.000000 0.000000 -0.000000 -0.000001 0.000000 -0.000000 -28.496727 -3.365586 -19.910244 39.722673 7.789278 -6.641806 -15.351132 -3.029312 17.400272 -0.000000 0.000000 0.000000 -0.000000 0.000000 0.000000 0.000001 -0.000000 -0.000002 7.614896 -7.184726 5.883687 7.125287 -2.107305 4.322575 7.173889 -2.153318 4.214478 -0.176097 2.528562 -2.316838 -21.160240 14.756654 -9.054432 0.000000 -0.000000 0.000000 0.000000 -0.000000 0.000000 0.000000 -0.000000 0.000000 0.881529 -5.010505 0.576533 -39.901422 -54.858191 -60.111054 -0.000276 -97.043246 -0.000211 29.506024 14.189095 0.352638 33.555924 13.229859 -1.093519 46.278268 53.322706 -39.139784 0.000000 0.000002 -0.000001 7.843457 6.813923 -98.057324 7.962745 6.796054 -99.064237 -0.000001 0.000003 -0.000001 7.841502 6.814183 -98.041095 7.964647 6.795764 -99.080425 0.000003 -0.000004 0.000001 7.843426 6.813893 -98.057297 7.962717 6.796061 -99.064230 -0.000001 -0.000000 -0.000002 11.884164 6.247157 -98.006637 7.958081 2.710170 -99.007854 0.000001 -0.000004 0.000001 0.000000 0.000000 0.000001 0.112477 -6.738961 6.333267 -18.926077 32.332913 37.074660 -0.000003 113.273292 0.000004 18.390732 -18.914512 -21.629363 43.155731 3.523208 3.090580 62.920877 -20.728654 19.962147 0.000001 -0.000003 -0.000000 8.518582 -6.769323 103.092874 8.518576 -6.769308 103.092922 0.000000 0.000000 0.000002 8.518575 -6.769315 103.092860 8.518569 -6.769292 103.092908 0.000002 -0.000001 -0.000000 8.518574 -6.769291 103.092881 8.518558 -6.769290 103.092936 -0.000000 0.000000 0.000002 8.518567 -6.769277 103.092881 8.518582 -6.769312 103.092915 0.000002 0.000001 0.000000 0.000000 0.000001 0.000001 0.000001 -0.000000 -0.000000 0.000001 -0.000000 -0.000000 0.000001 -0.000000 -0.000000 0.000001 -0.000000 -0.000000 0.000001 -0.000000 -0.000000 0.000001 0.000000 -0.000000 0.000001 -0.000000 -0.000000 0.000001 -0.000000 -0.000000 0.000001 0.000000 -0.000000 0.000001 0.000000 -0.000001 0.000001 0.000000 -0.000001 -0.000000 0.000001 0.000000 
6.544507 77.405426 -0.555300 2.892961 9.072952 3.997697 -0.000000 -0.000000 -0.000000 -28.117647 3.617109 8.969118 32.322958 -8.653467 2.302427 -7.795552 -2.707623 -11.713672 -0.000000 -0.000000 0.000000 -0.000000 -0.000000 0.000000 -0.000001 -0.000000 -0.000000 -25.337429 -5.735691 -20.787402 36.087164 6.225032 -5.454577 -14.504158 -2.812590 16.403683 0.000000 -0.000000 0.000000 0.000000 -0.000000 0.000000 0.000000 -0.000000 0.000002 5.752434 -7.455440 6.154284 6.481288 -2.153749 4.275027 6.528669 -2.216244 4.168852 0.552309 2.250990 -2.311608 -17.489137 13.156613 -9.441561 -0.000000 0.000000 0.000001 -0.000000 0.000000 0.000001 -0.000000 0.000000 0.000001 0.935047 -6.404051 2.187237 -50.875668 -53.790868 -67.451554 -0.000196 -83.564516 -0.000145 26.259002 9.588674 2.655746 33.555931 13.229850 -1.093519 46.278268 53.322706 -39.139781 -0.000001 -0.000003 -0.000003 7.843456 6.813918 -98.057324 7.962750 6.796057 -99.064230 -0.000001 0.000003 0.000000 7.841503 6.814182 -98.041095 7.964646 6.795764 -99.080432 0.000002 -0.000000 0.000000 7.843426 6.813883 -98.057303 7.962717 6.796062 -99.064230 0.000001 -0.000005 -0.000001 11.884163 6.247154 -98.006637 7.958081 2.710169 -99.007854 0.000000 0.000003 -0.000003 -0.000001 -0.000000 -0.000000 0.134233 -5.605948 4.825973 -27.738559 32.926877 41.217559 0.000397 103.423810 -0.000394 21.446990 -17.648594 -14.805704 43.155727 3.523211 3.090578 62.920871 -20.728659 19.962145 0.000000 -0.000001 -0.000004 8.518583 -6.769322 103.092874 8.518577 -6.769303 103.092915 -0.000000 -0.000001 0.000005 8.518568 -6.769316 103.092874 8.518568 -6.769289 103.092915 0.000001 0.000000 -0.000000 8.518570 -6.769291 103.092881 8.518557 -6.769296 103.092929 -0.000002 0.000000 0.000000 8.518562 -6.769278 103.092874 8.518582 -6.769316 103.092915 -0.000003 0.000002 0.000001 -0.000002 -0.000004 -0.000000 0.000000 -0.000000 -0.000001 0.000000 -0.000000 -0.000001 0.000000 -0.000000 -0.000001 0.000000 -0.000000 -0.000001 0.000000 -0.000000 -0.000002 -0.000002 -0.000001 -0.000001 0.000000 -0.000000 -0.000001 0.000000 -0.000000 -0.000002 -0.000002 -0.000001 -0.000001 0.000002 -0.000000 -0.000000 0.000002 -0.000000 -0.000000 -0.000000 -0.000000 -0.000000 
5.361928 78.121017 -0.119690 1.415579 12.164910 4.944537 0.000000 0.000000 0.000000 -26.745467 4.535977 9.312662 29.112155 -8.781013 1.361780 -1.782983 -5.911630 -12.047223 -0.000000 -0.000000 0.000000 -0.000000 -0.000000 0.000000 -0.000001 -0.000000 -0.000000 -22.335789 -7.594093 -21.175764 34.869048 4.686869 -4.914694 -14.941011 -2.731285 15.024922 0.000000 0.000000 0.000000 0.000000 0.000000 0.000000 0.000000 0.000000 0.000002 4.702998 -7.249994 6.276179 5.913142 -2.086148 4.068186 5.955957 -2.153668 3.972547 1.566926 1.843712 -2.080472 -14.083697 10.999158 -9.249405 0.000000 0.000001 -0.000000 0.000000 0.000001 -0.000000 0.000000 0.000001 -0.000000 1.058078 -8.016407 3.486641 -61.020773 -53.256399 -73.223808 -0.000021 -68.179679 -0.000026 22.958031 4.835512 4.321758 33.555924 13.229860 -1.093520 46.278275 53.322713 -39.139791 -0.000001 -0.000001 -0.000001 7.843458 6.813921 -98.057324 7.962748 6.796056 -99.064230 0.000000 -0.000005 0.000003 7.841502 6.814179 -98.041095 7.964648 6.795763 -99.080425 0.000002 -0.000007 -0.000004 7.843426 6.813890 -98.057303 7.962718 6.796060 -99.064224 -0.000000 0.000002 0.000000 11.884161 6.247156 -98.006637 7.958085 2.710170 -99.007854 0.000001 -0.000001 0.000001 0.000000 -0.000003 -0.000002 0.166813 -4.264552 3.130236 -36.545484 34.319150 45.846347 0.020756 91.307150 -0.020650 24.452603 -15.542913 -8.823549 43.155731 3.523209 3.090578 62.920877 -20.728654 19.962147 0.000001 0.000002 0.000000 8.518591 -6.769321 103.092874 8.518574 -6.769307 103.092922 0.000003 -0.000000 0.000003 8.518572 -6.769314 103.092874 8.518569 -6.769290 103.092908 0.000003 -0.000000 -0.000000 8.518574 -6.769293 103.092881 8.518557 -6.769300 103.092936 0.000001 -0.000000 0.000002 8.518568 -6.769279 103.092874 8.518579 -6.769319 103.092915 0.000002 -0.000002 -0.000000 0.000003 -0.000001 0.000002 -0.000000 0.000000 -0.000000 -0.000000 0.000000 -0.000000 -0.000000 0.000000 -0.000000 -0.000000 0.000000 -0.000000 -0.000000 0.000000 -0.000000 -0.000002 0.000001 0.000001 -0.000000 0.000000 -0.000000 -0.000000 0.000000 -0.000000 -0.000002 0.000001 0.000001 -0.000000 0.000000 0.000001 -0.000000 0.000000 0.000001 0.000000 0.000000 0.000000 
